<svg xmlns="http://www.w3.org/2000/svg" viewBox="0 0 120 120" fill="none">
  <circle cx="60" cy="60" r="56" fill="#1b5e20"/>
  <circle cx="60" cy="60" r="52" fill="#2e7d32"/>
  <path d="M60 20 C40 20 25 40 25 60 C25 70 30 78 38 84 L35 95 L48 88 C52 89 56 90 60 90 C80 90 95 70 95 50 C95 30 80 20 60 20Z" fill="#4caf50"/>
  <path d="M45 55 L55 65 L75 40" stroke="#fff" stroke-width="5" stroke-linecap="round" stroke-linejoin="round"/>
  <path d="M50 95 C50 100 55 105 60 105 C65 105 70 100 70 95" stroke="#81c784" stroke-width="3" stroke-linecap="round" fill="none"/>
  <path d="M55 105 L60 112 L65 105" fill="#81c784"/>
</svg>